# xmcd CD database file
#
# Track frame offsets:
#	150
#	17150
#	39935
#	57333
#	78720
#	93193
#	113243
#	132218
#	153293
#
# Disc length: 2426 seconds
#
# Revision: 4
# Processed by: cddbd v1.5.2PL0 Copyright (c) Steve Scherf et al.
# Submitted via: NeoAudio 9.9.9
#
DISCID=68097809
DTITLE=Depeche Mode - Some Great Reward
DYEAR=1984
DGENRE=Electronic
TTITLE0=Something To Do
TTITLE1=Lie To Me
TTITLE2=People Are People
TTITLE3=It Doesn't Matter
TTITLE4=Stories Of Old
TTITLE5=Somebody
TTITLE6=Master And Servant
TTITLE7=If You Want
TTITLE8=Blasphemous Rumours
EXTD=YEAR: 1984
EXTT0=
EXTT1=
EXTT2=
EXTT3=
EXTT4=
EXTT5=
EXTT6=
EXTT7=
EXTT8=
PLAYORDER=
